# xmcd
#
# Track frame offsets:
#  150
#  16308
#  28889
#  49791
#  72135
#  86593
#  110903
#  131161
#  152163
#  165111
#  187068
#  201967
#  218493
#
# Disc length: 3029 seconds
#
# Revision: 3
# Processed by: cddbd v1.5.1PL2 Copyright (c) Steve Scherf et al.
# Submitted via: Collectorz.com_Music_Collector 6.9
#
DISCID=b40bd30d
DTITLE=Junkyard - Shut Up - We're Tryin' to Practice!
DYEAR=2001
DGENRE=Hard Rock
TTITLE0=Life Sentence
TTITLE1=Hot Rod
TTITLE2=Long Way Home
TTITLE3=Can't Hold Back
TTITLE4=Take Me Home
TTITLE5=Simple Man
TTITLE6=Blooze
TTITLE7=Misery
TTITLE8=Hollywood
TTITLE9=Hallelujah, I Love Her So
TTITLE10=Shot in the Dark
TTITLE11=Texas
TTITLE12=Tush
EXTD=
EXTT0=
EXTT1=
EXTT2=
EXTT3=
EXTT4=
EXTT5=
EXTT6=
EXTT7=
EXTT8=
EXTT9=
EXTT10=
EXTT11=
EXTT12=
PLAYORDER=
